<svg width="72" height="72" fill="none" xmlns="http://www.w3.org/2000/svg" class="jsx-ddfb0b416b0db288 mx-auto block h-10 w-10"><path d="M0 8a8 8 0 0 1 8-8h56a8 8 0 0 1 8 8v56a8 8 0 0 1-8 8H8a8 8 0 0 1-8-8V8Z" fill="#A50064" class="jsx-ddfb0b416b0db288"/><path d="M51.859 10c-6.22 0-11.353 5.035-11.353 11.353 0 6.22 5.035 11.353 11.353 11.353 6.22 0 11.353-5.034 11.353-11.353C63.212 15.133 58.177 10 51.86 10Zm0 16.19a4.845 4.845 0 0 1-4.837-4.837 4.845 4.845 0 0 1 4.837-4.837 4.845 4.845 0 0 1 4.837 4.837 4.845 4.845 0 0 1-4.837 4.838ZM28.758 10a8.636 8.636 0 0 0-5.134 1.678C22.242 10.592 20.464 10 18.49 10 13.752 10 10 13.85 10 18.49v14.216h6.516V18.49c0-1.086.888-1.875 1.876-1.875 1.085 0 1.875.888 1.875 1.875v14.216h6.516V18.49c0-1.086.889-1.875 1.876-1.875 1.086 0 1.876.888 1.876 1.875v14.216h6.515V18.59C37.248 13.85 33.496 10 28.758 10ZM51.859 37.643c-6.22 0-11.353 5.035-11.353 11.353 0 6.22 5.035 11.353 11.353 11.353 6.22 0 11.353-5.035 11.353-11.353A11.292 11.292 0 0 0 51.86 37.643Zm0 16.092a4.845 4.845 0 0 1-4.837-4.838 4.845 4.845 0 0 1 4.837-4.837 4.845 4.845 0 0 1 4.837 4.837c0 2.764-2.171 4.838-4.837 4.838ZM28.758 37.643a8.636 8.636 0 0 0-5.134 1.678c-1.382-1.086-3.16-1.678-5.134-1.678-4.738 0-8.49 3.85-8.49 8.49v14.216h6.516V46.034c0-1.086.888-1.876 1.876-1.876 1.085 0 1.875.889 1.875 1.876v14.217h6.516V46.034c0-1.086.889-1.876 1.876-1.876 1.086 0 1.876.889 1.876 1.876v14.217h6.515V46.133c.198-4.739-3.554-8.49-8.292-8.49Z" fill="#fff" class="jsx-ddfb0b416b0db288"/></svg>